<?xml version="1.0" standalone="no"?>
<!DOCTYPE svg PUBLIC "-//W3C//DTD SVG 20010904//EN"
 "http://www.w3.org/TR/2001/REC-SVG-20010904/DTD/svg10.dtd">
<svg version="1.0" xmlns="http://www.w3.org/2000/svg"
 width="227.000000pt" height="227.000000pt" viewBox="0 0 227.000000 227.000000"
 preserveAspectRatio="xMidYMid meet">
<metadata>
Created by potrace 1.14, written by Peter Selinger 2001-2017
</metadata>
<g transform="translate(0.000000,227.000000) scale(0.100000,-0.100000)"
fill="#000000" stroke="none">
<path d="M1044 1873 c-15 -12 -30 -20 -32 -18 -11 11 -169 -45 -252 -90 -95
-52 -229 -196 -273 -295 -34 -74 -39 -86 -50 -135 -15 -62 -17 -82 -17 -145 0
-148 24 -252 86 -370 123 -232 432 -386 692 -346 176 28 361 135 470 272 27
33 101 179 106 209 2 11 9 40 16 64 20 75 19 218 -2 301 -28 111 -41 144 -90
217 -36 53 -184 203 -201 203 -6 0 -18 6 -26 14 -31 26 -159 86 -184 86 -9 0
-18 4 -22 10 -3 5 -12 7 -20 3 -18 -6 -75 15 -75 29 0 5 -4 7 -9 3 -5 -3 -13
-1 -16 5 -11 17 -71 8 -101 -17z m209 -573 l118 -122 -34 -36 c-19 -21 -77
-82 -130 -136 l-96 -100 -131 129 c-71 71 -130 135 -130 141 0 7 56 70 125
139 104 105 127 124 142 116 10 -5 71 -64 136 -131z"/>
</g>
</svg>
